<svg width="97" height="31" fill="none" xmlns="http://www.w3.org/2000/svg"><path d="M20.981 11.367c.599 0 .898.246.898.738v.155c0 .363-.377.867-1.132 1.514-.755.648-1.25 1.256-1.483 1.825l-5.036 13.395c-.235.673-.69 1.01-1.367 1.01H9.426c-.599 0-1.067-.337-1.406-1.01L2.086 15.6c-.208-.466-.611-1.035-1.21-1.708-.572-.699-.859-1.242-.859-1.63v-.156c0-.492.3-.738.898-.738h8.98c.572 0 .858.26.858.777v.155c0 .259-.117.57-.351.932a4.18 4.18 0 00-.508.932c-.078.284-.013.802.195 1.553l3.358 8.775 2.85-7.805c.286-1.087.325-1.837.117-2.251a3.693 3.693 0 00-.937-1.204c-.39-.388-.586-.699-.586-.932v-.155c0-.518.3-.777.898-.777h5.192zM26.368 9.077c-1.327 0-2.407-.363-3.24-1.088-.833-.75-1.25-1.682-1.25-2.795s.417-2.032 1.25-2.757c.833-.75 1.913-1.126 3.24-1.126 1.302 0 2.369.376 3.202 1.126.832.725 1.249 1.644 1.249 2.757 0 1.113-.417 2.045-1.25 2.795-.832.725-1.9 1.088-3.2 1.088zm-4.177 20.927c-.624 0-.937-.246-.937-.738v-.155c0-.31.26-.79.781-1.437.52-.647.78-1.294.78-1.94v-7.378c0-.673-.26-1.32-.78-1.941-.52-.647-.78-1.087-.78-1.32v-.156c0-.31.299-.608.897-.893l5.895-2.873c.547-.233.976-.259 1.288-.078.313.182.469.48.469.893v13.745c0 .647.286 1.294.859 1.941.598.648.898 1.126.898 1.437v.155c0 .492-.326.738-.977.738h-8.393zM42.709 30.392c-3.02 0-5.583-.919-7.69-2.756-2.083-1.864-3.124-4.194-3.124-6.99 0-2.795 1.041-5.098 3.123-6.91 2.082-1.838 4.555-2.757 7.418-2.757 2.967 0 5.491.919 7.573 2.757 2.082 1.837 3.123 4.167 3.123 6.988 0 2.796-1.015 5.113-3.045 6.95-2.03 1.812-4.49 2.718-7.378 2.718zm.82-1.902c1.665 0 2.498-1.592 2.498-4.776 0-1.165-.169-2.55-.507-4.154a15.575 15.575 0 00-1.64-4.543c-.755-1.424-1.6-2.135-2.537-2.135-.911 0-1.562.4-1.952 1.203-.39.802-.586 2.02-.586 3.65 0 .854.104 1.864.312 3.028.209 1.165.495 2.343.86 3.534.364 1.164.858 2.16 1.483 2.99.65.802 1.34 1.203 2.069 1.203zM54.534 30.004c-.598 0-.898-.246-.898-.738v-.155c0-.31.248-.777.742-1.398.52-.647.781-1.294.781-1.941V8.028c0-.673-.26-1.32-.78-1.941-.495-.647-.742-1.1-.742-1.359v-.155c0-.285.286-.583.858-.893L60.39.807c.547-.233.976-.246 1.288-.04.339.182.508.467.508.855v24.15c0 .647.286 1.294.859 1.941.572.621.859 1.087.859 1.398v.155c0 .492-.313.738-.937.738h-8.433zM80.446 23.87c.286-.285.599-.363.937-.234.364.104.533.363.507.777-.052 1.294-.806 2.614-2.264 3.96-1.457 1.346-3.344 2.02-5.66 2.02-2.837 0-5.154-.907-6.95-2.719-1.795-1.811-2.693-4.18-2.693-7.105 0-2.795.937-5.086 2.81-6.872 1.9-1.812 4.165-2.718 6.793-2.718 2.369 0 4.204.544 5.505 1.63 1.301 1.088 1.952 2.317 1.952 3.69 0 1.086-.508 1.889-1.523 2.407l-7.768 4.348c1.067 1.683 2.55 2.524 4.45 2.524.807 0 1.561-.155 2.264-.466.729-.337 1.276-.75 1.64-1.243zm-7.222-10.988c-.781 0-1.419.388-1.913 1.164-.469.777-.703 1.748-.703 2.912 0 1.553.195 2.912.586 4.077l3.63-2.174c.677-.466 1.015-1.126 1.015-1.98 0-.855-.22-1.735-.663-2.64-.417-.906-1.067-1.36-1.952-1.36zM90.489 30.392c-1.978 0-3.54-.621-4.685-1.863-1.119-1.243-1.678-3.016-1.678-5.32v-9.201h-1.484a.988.988 0 01-.664-.233.977.977 0 01-.234-.66v-.855c0-.595.3-.893.898-.893h.742c1.197 0 2.225-.35 3.084-1.048.859-.725 1.418-1.682 1.679-2.873.13-.673.481-1.01 1.054-1.01h.898c.702 0 1.053.337 1.053 1.01v3.921h4.022c.26 0 .468.09.625.272a.777.777 0 01.273.621v.854a.898.898 0 01-.273.66c-.157.156-.365.234-.625.234h-4.022v9.318c0 .647.17 1.165.508 1.553.339.362.755.543 1.25.543 1.119 0 1.977-.478 2.576-1.436.182-.233.39-.363.625-.388.234-.052.429-.013.585.116a.63.63 0 01.274.544c0 1.63-.586 3.067-1.757 4.31-1.145 1.216-2.72 1.824-4.724 1.824z" fill="#E6DEE7"/></svg>